<svg xmlns="http://www.w3.org/2000/svg" version="1.1" viewBox="-5.0 -10.0 110.0 135.0">
 <path d="m82.918 57.25c-10.922 0.96875-21.711-2.9531-29.465-10.703-7.75-7.7539-11.672-18.543-10.703-29.465 0.24219-2.5898-0.91797-5.1172-3.043-6.625-2.0508-1.4219-4.7109-1.6289-6.957-0.53906-11.781 5.6641-20.344 16.383-23.27 29.121-2.9258 12.742 0.10156 26.121 8.2266 36.359 8.1289 10.238 20.473 16.227 33.543 16.27 8.1133 0.007812 16.059-2.2812 22.926-6.6055 6.8633-4.3203 12.363-10.496 15.867-17.812 1.0859-2.2461 0.87891-4.9062-0.54297-6.957-1.4922-2.1172-4.0039-3.2773-6.582-3.043zm1.75 7.418c-3.0859 6.2148-7.8359 11.453-13.719 15.133-5.8867 3.6797-12.676 5.6523-19.617 5.6992-9.7617-0.011719-19.125-3.8789-26.047-10.762-6.9219-6.8867-10.844-16.227-10.91-25.988-0.046875-9.8242 3.8555-19.254 10.832-26.168 2.9414-2.9883 6.3828-5.4414 10.168-7.25h0.41797c0.16016-0.050781 0.33594-0.050781 0.5 0 0.43359 0.29297 0.62109 0.83594 0.45703 1.3359-1.1094 12.66 3.4453 25.164 12.43 34.152 8.9883 8.9844 21.492 13.539 34.152 12.43 0.43359-0.070312 0.86719 0.10547 1.125 0.45703 0.23438 0.26172 0.3125 0.625 0.21094 0.96094zm-16-46.211 2.875-1.543v0.003907c0.64453-0.37891 1.1797-0.92578 1.5391-1.5859l1.543-2.832c0.77344-1.1523 2.0703-1.8438 3.457-1.8438 1.3906 0 2.6875 0.69141 3.4609 1.8438l1.543 2.832h-0.003907c0.375 0.66406 0.92188 1.2109 1.5859 1.5859l2.832 1.543v-0.003907c1.1523 0.77344 1.8438 2.0703 1.8438 3.4609 0 1.3867-0.69141 2.6836-1.8438 3.457l-2.832 1.543c-0.66016 0.35938-1.207 0.89453-1.5859 1.5391l-1.543 2.875h0.003907c-0.77344 1.1523-2.0703 1.8438-3.4609 1.8438-1.3867 0-2.6836-0.69141-3.457-1.8438l-1.543-2.875c-0.37891-0.62891-0.91016-1.1602-1.5391-1.5391l-2.875-1.543c-1.1523-0.77344-1.8438-2.0703-1.8438-3.457 0-1.3906 0.69141-2.6875 1.8438-3.4609zm22 28.75-1.457 0.75h-0.003907c-0.32031 0.1875-0.57812 0.46484-0.75 0.79297l-0.95703 1.25c-0.33984 0.64062-1.0039 1.0391-1.7305 1.0391-0.72266 0-1.3867-0.39844-1.7266-1.0391l-0.71094-1.25c-0.19531-0.32031-0.46875-0.59375-0.78906-0.79297l-1.418-0.75c-0.64062-0.33984-1.0391-1.0039-1.0391-1.7266 0-0.72656 0.39844-1.3906 1.0391-1.7305l1.418-0.79297c0.32812-0.18359 0.60547-0.46094 0.78906-0.78906l0.75-1.418c0.35938-0.61719 1.0195-0.99609 1.7305-0.99609s1.3711 0.37891 1.7305 0.99609l0.79297 1.418h-0.003907c0.15625 0.33594 0.42188 0.61719 0.75 0.78906l1.457 0.79297h0.003907c0.62891 0.33594 1.0312 0.98047 1.0586 1.6914 0.023438 0.71484-0.33203 1.3867-0.93359 1.7656zm-40.668-34.707 1.418-0.79297c0.32812-0.16797 0.60156-0.42969 0.78906-0.75l0.75-1.457c0.35938-0.61719 1.0195-0.99609 1.7305-0.99609s1.3711 0.37891 1.7305 0.99609l0.79297 1.457h-0.003907c0.17578 0.33203 0.45312 0.59375 0.79297 0.75l1.418 0.79297c0.61328 0.35938 0.99219 1.0156 0.99219 1.7305 0 0.71094-0.37891 1.3711-0.99219 1.7266l-1.5859 0.71094c-0.32812 0.18359-0.60547 0.46094-0.78906 0.78906l-0.79297 1.418c-0.33984 0.64062-1.0039 1.0391-1.7305 1.0391-0.72266 0-1.3867-0.39844-1.7266-1.0391l-0.75-1.418c-0.19922-0.32031-0.47266-0.59375-0.79297-0.78906l-1.25-0.875c-0.55859-0.36328-0.89844-0.98047-0.89844-1.6484 0-0.66406 0.33984-1.2852 0.89844-1.6445z"/>
<text x="0.0" y="117.5" font-size="5.0" font-weight="bold" font-family="Arbeit Regular, Helvetica, Arial-Unicode, Arial, Sans-serif" fill="#000000">Created by GlyphGenius Studio</text><text x="0.0" y="122.5" font-size="5.0" font-weight="bold" font-family="Arbeit Regular, Helvetica, Arial-Unicode, Arial, Sans-serif" fill="#000000">from Noun Project</text></svg>