<?xml version="1.0" encoding="UTF-8"?>
<svg id="logos_png" data-name="logos, png" xmlns="http://www.w3.org/2000/svg" viewBox="0 0 445.24 161.02">
  <defs>
    <style>
      .cls-1 {
        fill: none;
      }

      .cls-1, .cls-2, .cls-3 {
        stroke-width: 0px;
      }

      .cls-2 {
        fill: #fc3f3f;
      }

      .cls-3 {
        fill: #333232;
      }
    </style>
  </defs>
  <polygon class="cls-3" points="270.51 30.99 298.15 30.99 346.38 147.3 317.72 147.3 270.51 30.99"/>
  <polygon class="cls-2" points="34.99 30.99 117.22 30.99 142.49 106.02 189.23 30.99 219.14 30.99 185.5 83.32 215.81 83.32 249.45 30.99 277.51 30.99 207.75 141.41 179.38 141.41 204.6 102.01 174.28 102.01 137.08 160.86 98.53 51.34 42.46 51.34 34.99 30.99"/>
  <polygon class="cls-2" points="323.73 147.3 351.77 147.3 415.23 46.84 387.19 46.84 323.73 147.3"/>
  <polygon class="cls-2" points="404.3 19.34 432.61 19.15 419.87 39.08 391.88 38.99 404.3 19.34"/>
  <path class="cls-3" d="m444.87.02s-19.54,0-25.57,0h-34.69c-18.1,0-23.15-.65-33.38,12.64-11.17,14.51-40.61,58.67-61.7,88.61-3.99,5.67-11.41,16.35-16.55,21.87-10.51,11.31-11.56,16.16-27.15,16.63-19.81.6-95.39-.07-95.39-.07l-13.37,21.15s91.46.75,117.85,0c24.73-.71,42.31-32.44,52.46-46.01,21.53-28.79,49.26-74.1,59.06-86.92,4.93-6.45,12.12-8.3,19.66-8.3,12.07,0,46.19-.02,46.19-.02L444.87.02Z"/>
  <rect class="cls-3" y="58.94" width="25.41" height="25.41"/>
  <rect class="cls-3" x="25.41" y="84.36" width="25.41" height="25.41"/>
  <rect class="cls-3" x="50.83" y="58.94" width="25.41" height="25.41"/>
  <rect class="cls-3" x="76.24" y="84.36" width="25.41" height="25.41"/>
  <rect class="cls-3" x="50.83" y="109.79" width="25.41" height="25.41"/>
  <rect class="cls-3" y="109.79" width="25.41" height="25.41"/>
  <polygon class="cls-3" points="111.81 109.79 102.18 109.79 102.18 135.2 120.47 135.2 111.81 109.79"/>
  <rect class="cls-1" y=".03" width="444.87" height="161.17"/>
</svg>