<?xml version="1.0" encoding="UTF-8"?><svg id="Layer_2" xmlns="http://www.w3.org/2000/svg" viewBox="0 0 813.41 682.04"><defs><style>.cls-1{fill:#6a4c17;}</style></defs><g id="Layer_1-2"><g><path class="cls-1" d="M481.59,318.06l29.57-13.71,7.59-3.52c6.95-15.8,12.47-32,16.05-48.69,15.07-70.24-6.93-139.75-67.19-211.87-1.26-1.49-3.39-1.96-5.16-1.11l-15.84,7.67c-2.52,1.22-3.18,4.5-1.36,6.63,89.98,105.6,79.38,187.74,36.34,264.58Z"/><path class="cls-1" d="M424.93,442.76l-23.79-11.02c-57.64,75.08-112.74,153.12-89.47,247.08,.47,1.9,2.2,3.22,4.16,3.22h17.61c2.79,0,4.86-2.64,4.11-5.33-23.47-86.14,29.2-158.42,87.38-233.95Z"/><polygon class="cls-1" points="757.85 376.25 813.41 353.04 813.41 319.83 685.48 379.13 685.48 407.95 813.41 467.25 813.41 434.04 757.85 410.83 719.19 394.22 719.19 392.86 757.85 376.25"/><path class="cls-1" d="M588.15,374.01l5.37,2.24,38.65,16.61v1.36l-38.65,16.61-46.34,19.36c-3.07,4.03-6.16,8.06-9.23,12.07v25.03l127.92-59.3v-28.82l-62.31-28.88c-4.92,7.97-10.08,15.9-15.41,23.75Z"/><path class="cls-1" d="M341.63,432.4c42.8-51.12,87.06-103.98,102.36-163.92,15.97-62.52-1.9-124.96-54.55-190.27-1.24-1.53-3.41-2.03-5.2-1.17l-15.75,7.63c-2.49,1.22-3.18,4.43-1.41,6.57,49.8,60.35,66.38,115.05,52.12,170.92-13.88,54.31-54.36,102.66-97.2,153.84-60.35,72.07-122.49,146.32-108.16,240.86-107.86-106.48-87.61-208.09-69.58-298.6,15.6-78.3,30.4-152.48-38.46-213.53-1.28-1.15-3.15-1.39-4.71-.64l-16.78,8.12c-2.79,1.36-3.24,5.16-.83,7.12,63.86,52.35,51.37,115.11,35.66,193.92-10.04,50.41-21.42,107.54-10.72,166.82,10.57,58.51,41.25,111.38,93.39,160.79,.79,.75,1.85,1.17,2.96,1.17h35.56c2.84,0,4.88-2.73,4.09-5.44-27.95-94.69,32.93-167.4,97.2-244.18Z"/><path class="cls-1" d="M55.32,366.4c13.43-70.39,26.16-137.17-31.06-182.47-1.28-1-3.03-1.19-4.5-.47l-17.35,8.4c-2.92,1.41-3.28,5.48-.6,7.33,52.48,35.9,42.29,89.44,28.37,162.43-17.71,92.9-39.5,207.01,75.67,319.19,.81,.79,1.88,1.22,3.01,1.22h25.05c3.92,0,5.73-4.84,2.81-7.46C16.91,567.89,37.27,461.03,55.32,366.4Z"/><path class="cls-1" d="M632.17,241.38c16.37-80.7-11.34-159.38-84.67-239.98-1.28-1.41-3.33-1.79-5.03-.98l-16.03,7.76c-2.58,1.26-3.2,4.65-1.24,6.76,69.96,75.48,96.78,148.04,81.9,221.35-6.8,33.55-21.68,65.68-40.52,96.82l-28.65-13.28v33.21l12.49,5.22c-15.65,23.17-32.93,45.85-50.12,68.26l-37.56-15.69-10.04-4.33h0l-24.19-10.4h0l-4.41-1.9v-1.36l10.19-4.37h0l28.48-12.24,16.95-7.08h0l38.63-16.12v-33.21l-127.92,59.3v28.82l91.62,42.48c-27.82,36.6-53.18,71.99-69.96,108.8-19.36,42.53-24.22,81.86-14.69,119.61,.47,1.88,2.2,3.2,4.16,3.2h17.65c2.81,0,4.86-2.69,4.09-5.39-22.3-78.62,34.53-152.69,94.5-230.84,48.73-63.52,99.12-129.22,114.38-204.43Z"/></g></g></svg>