<svg xmlns="http://www.w3.org/2000/svg" id="svg854" version="1.1" viewBox="0 0 62.29 58.5"><defs id="defs840"><style id="style838">.cls-1{fill:#3148a1}</style></defs><g id="Layer_2" data-name="Layer 2"><g id="Layer_1-2" data-name="Layer 1"><path style="fill:#fff;fill-opacity:1" id="path844" d="M45 0h-3.28a1.31 1.31 0 0 0-1.12.82L26.93 39.47 13.21.82A1.28 1.28 0 0 0 12.09 0H8.85a.54.54 0 0 0-.6.49.7.7 0 0 0 .05.33l16 45.2a1.11 1.11 0 0 0 .17.3l-1.73 4.89L5 .83A1.29 1.29 0 0 0 3.84 0H.6a.55.55 0 0 0-.6.5.59.59 0 0 0 .06.33l20.08 56.78a1.22 1.22 0 0 0 .33.48.54.54 0 0 0 .57.39h3.25a1 1 0 0 0 .37-.07.56.56 0 0 0 .29-.16 1.29 1.29 0 0 0 .46-.59L45.51.82a.58.58 0 0 0-.24-.76A.56.56 0 0 0 45 0z" class="cls-1"/><path style="fill:#fff;fill-opacity:1" id="path846" d="M61.69 0h-3.24a1.29 1.29 0 0 0-1.12.82l-20.1 56.86a.57.57 0 0 0 .24.76.52.52 0 0 0 .3.06H41a1.29 1.29 0 0 0 1.12-.82L62.23.82A.57.57 0 0 0 62 .06a.52.52 0 0 0-.31-.06z" class="cls-1"/><path style="fill:#fff;fill-opacity:1" id="path848" d="M41.63 32.9h-3.24a1.29 1.29 0 0 0-1.12.82l-8.47 24a.57.57 0 0 0 .24.76.51.51 0 0 0 .3.06h3.25a1.3 1.3 0 0 0 1.11-.8l8.48-24a.57.57 0 0 0-.25-.75.51.51 0 0 0-.3-.09z" class="cls-1"/><path style="fill:#fff;fill-opacity:1" id="path850" d="M39.65 29.26h3.25a1.31 1.31 0 0 0 1.1-.82L53.79.8a.56.56 0 0 0-.35-.8h-3.52a.75.75 0 0 0-.26 0 1.37 1.37 0 0 0-.59.42 1 1 0 0 0-.13.25l-9.87 27.97a.54.54 0 0 0 .58.62z" class="cls-1"/></g></g></svg>